<?xml version="1.0" encoding="UTF-8"?>
<svg id="_レイヤー_1" data-name="レイヤー 1" xmlns="http://www.w3.org/2000/svg" viewBox="0 0 950.12 191.19">
  <defs>
    <style>
      .cls-1, .cls-2 {
        stroke-width: 0px;
      }

      .cls-2 {
        fill: #f7b64e;
      }
    </style>
  </defs>
  <g>
    <path class="cls-1" d="m351.61,78.95c-1.79,13.33-4.18,26.06-7.56,37.99l9.75,2.98-8.75,25.46c-2.39-.8-5.57-1.99-9.55-3.38-6.96,15.91-15.12,29.44-24.67,40.78l-31.23-25.86,6.76-4.58c5.17-6.96,9.55-14.32,13.13-22.08l-19.49-6.17,8.35-24.27,20.09,5.97c2.19-7.76,3.78-15.32,4.97-22.48l-30.63-2.98c-5.37,14.92-10.34,25.86-14.72,33.02l-38.59-21.48,5.17-6.37c8.95-18.1,14.92-38.19,17.9-60.27-6.37-3.18-8.95-8.35-8.16-15.32l.8-6.37,51.72,7.76c-.4,7.96-1.59,17.31-3.18,27.85l60.87,4.77c-1.19,17.11-2.39,28.64-2.98,35.01Z"/>
    <path class="cls-1" d="m548.33,146.58c-5.57-4.97-23.47-21.48-54.3-49.73l-20.49,21.88c-5.77,5.97-12.53,8.95-20.69,8.95s-15.71-2.98-21.88-8.95l-12.73-12.73c29.24-29.84,52.12-53.91,68.63-72.21l90.11,78.37-28.64,34.41Zm-17.7-94.48l-4.97-21.68,15.71-3.58,4.77,21.48-15.52,3.78Zm24.67-5.57l-4.97-21.28,15.52-3.78,4.97,21.48-15.52,3.58Z"/>
    <path class="cls-1" d="m742.46,127.09c-11.34-2.59-26.65-5.97-46.15-9.95v47.74h-48.14V26.44h48.14v52.31c23.07,4.77,41.37,8.75,54.7,11.74l-8.55,36.6Zm-14.92-60.47l-4.97-21.68,15.52-3.58,4.97,21.48-15.52,3.78Zm24.67-5.37l-4.97-21.48,15.52-3.58,4.97,21.28-15.52,3.78Z"/>
    <path class="cls-1" d="m920.88,138.82l2.59,31.63-42.77,3.18-2.39-31.23-28.25,1.99-2.98-37.2,28.25-2.39-1.19-15.32-13.13.8c-7.16.4-13.33-1.59-18.5-6.17-5.37-4.58-8.35-10.34-9.35-17.5l-2.59-22.88,39.98-2.59-1.59-21.48,42.77-3.38,1.79,22.08,30.43-1.79,3.18,48.14-30.23,1.79,1.19,14.92,29.04-2.39,2.98,37.2-29.24,2.59Z"/>
  </g>
  <path class="cls-1" d="m138.36,191.19H34.08c-18.79,0-34.08-15.29-34.08-34.08,0-3.45,2.8-6.25,6.25-6.25s6.25,2.8,6.25,6.25c0,11.9,9.68,21.59,21.59,21.59h104.28c11.9,0,21.59-9.68,21.59-21.59V34.08c0-11.9-9.68-21.59-21.59-21.59H34.08c-11.9,0-21.59,9.68-21.59,21.59v87.54l.06,9.96c.02,3.45-2.76,6.27-6.21,6.29h-.04c-3.43,0-6.23-2.77-6.25-6.21l-.06-10V34.08C0,15.29,15.29,0,34.08,0h104.28c18.79,0,34.08,15.29,34.08,34.08v123.02c0,18.79-15.29,34.08-34.08,34.08Z"/>
  <path class="cls-1" d="m144.07,83.72H56.38c-3.45,0-6.25-2.8-6.25-6.25s2.8-6.25,6.25-6.25h87.69c3.45,0,6.25,2.8,6.25,6.25s-2.8,6.25-6.25,6.25Z"/>
  <path class="cls-2" d="m33.16,96.15h-.04c-3.45-.02-6.23-2.84-6.21-6.29l.17-25.03c.02-3.44,2.82-6.21,6.25-6.21h.04c3.45.02,6.23,2.84,6.21,6.29l-.17,25.03c-.02,3.44-2.82,6.21-6.25,6.21Z"/>
</svg>